<?xml version="1.0" encoding="UTF-8" standalone="no"?>
<svg
   version="1.1"
   x="0px"
   y="0px"
   viewBox="0 0 100 100"
   enable-background="new 0 0 100 100"
   xml:space="preserve"
   id="svg4"
   sodipodi:docname="noun-cat-1486580.svg"
   inkscape:version="1.4 (e7c3feb100, 2024-10-09)"
   width="100"
   height="100"
   xmlns:inkscape="http://www.inkscape.org/namespaces/inkscape"
   xmlns:sodipodi="http://sodipodi.sourceforge.net/DTD/sodipodi-0.dtd"
   xmlns="http://www.w3.org/2000/svg"
   xmlns:svg="http://www.w3.org/2000/svg">
   <style>
     path {
       fill: black;
     }
     @media (prefers-color-scheme: dark) {
       path {
         fill: white;
       }
     }
     </style><defs
     id="defs4" /><sodipodi:namedview
     id="namedview4"
     pagecolor="#505050"
     bordercolor="#eeeeee"
     borderopacity="1"
     inkscape:showpageshadow="0"
     inkscape:pageopacity="0"
     inkscape:pagecheckerboard="0"
     inkscape:deskcolor="#505050"
     inkscape:zoom="6.744"
     inkscape:cx="49.970344"
     inkscape:cy="44.706406"
     inkscape:window-width="1920"
     inkscape:window-height="1052"
     inkscape:window-x="0"
     inkscape:window-y="0"
     inkscape:window-maximized="1"
     inkscape:current-layer="svg4" /><path
     d="m 83.447,53.068 c -0.829,0 -1.5,0.671 -1.5,1.5 0,8.709 -3.441,16.848 -9.689,22.917 C 66.013,83.552 57.771,86.762 49.05,86.501 32.487,86.022 18.888,72.69 18.092,56.15 17.249,38.647 30.245,23.956 47.679,22.704 c 0.548,-0.039 1.031,-0.375 1.258,-0.875 1.089,-2.395 3.209,-6.341 4.823,-8.033 0.793,0.583 2.188,1.974 3.411,5.072 0.235,0.596 0.839,0.979 1.464,0.948 0.073,-0.006 7.403,-0.291 11.826,3.255 0.543,0.436 1.316,0.438 1.863,0.011 0.027,-0.021 2.388,-1.838 5.166,-2.261 0.322,1.79 0.646,5.685 -1.06,10.951 -0.626,1.936 -1.353,3.725 -2.16,5.316 -2.179,4.299 -6.603,6.982 -11.296,6.859 l -0.102,-0.004 c -4.795,-0.182 -7.979,-3.211 -8.006,-3.238 -0.591,-0.581 -1.54,-0.573 -2.122,0.019 -0.58,0.591 -0.572,1.541 0.019,2.122 0.161,0.158 4.004,3.868 9.984,4.095 l 0.189,0.007 c 5.826,0.173 11.307,-3.174 14.008,-8.503 0.877,-1.73 1.664,-3.665 2.338,-5.749 2.709,-8.369 0.857,-13.741 0.777,-13.966 -0.212,-0.595 -0.773,-0.993 -1.404,-0.996 -0.018,0 -0.035,0 -0.053,0 -3.044,0 -5.789,1.445 -7.179,2.327 -4.17,-2.804 -9.595,-3.212 -11.867,-3.251 -2.337,-5.216 -5.246,-6.173 -5.587,-6.27 -0.426,-0.12 -0.884,-0.046 -1.25,0.204 -2.418,1.644 -5.128,6.937 -6.14,9.042 C 27.955,21.58 14.187,37.447 15.095,56.294 15.967,74.39 30.843,88.975 48.964,89.5 c 0.35,0.01 0.699,0.015 1.047,0.015 9.149,0 17.756,-3.485 24.338,-9.878 6.834,-6.639 10.598,-15.542 10.598,-25.069 0,-0.829 -0.671,-1.5 -1.5,-1.5 z"
     id="path1" /><path
     d="m 69.569,38.58 c 0.674,0 1.415,-0.117 2.216,-0.408 0.779,-0.282 1.181,-1.143 0.899,-1.921 -0.283,-0.779 -1.143,-1.181 -1.921,-0.899 -1.99,0.72 -3.202,-0.564 -3.343,-0.725 -0.53,-0.626 -1.466,-0.712 -2.102,-0.188 -0.638,0.528 -0.728,1.474 -0.2,2.112 0.084,0.102 1.716,2.029 4.451,2.029 z"
     id="path2" /><path
     d="m 58.618,35.128 c 0.779,-0.282 1.181,-1.143 0.899,-1.921 -0.282,-0.778 -1.141,-1.18 -1.921,-0.899 -1.987,0.718 -3.202,-0.564 -3.343,-0.725 -0.53,-0.626 -1.466,-0.712 -2.102,-0.188 -0.639,0.528 -0.728,1.474 -0.2,2.112 0.084,0.102 1.717,2.028 4.451,2.028 0.673,0.001 1.415,-0.116 2.216,-0.407 z"
     id="path3" /></svg>
